<svg width="988" height="672" version="1.1" xmlns="http://www.w3.org/2000/svg" desc="Created with ImageTracer.java version 1.1.2" ><path desc="l 0 p 0" fill="rgb(0,0,255)" stroke="rgb(0,0,255)" stroke-width="1" opacity="1.0" d="M 0.5 0.0 L 988.0 0.5 L 987.5 672.0 L 0.0 671.5 L 0.5 0.0 Z" /><path desc="l 4 p 0" fill="rgb(255,255,255)" stroke="rgb(255,255,255)" stroke-width="1" opacity="1.0" d="M 510.5 42.0 L 516.0 44.5 L 528.5 52.0 L 573.5 78.0 L 760.0 185.5 L 760.0 400.5 L 760.0 454.5 L 760.0 467.5 Q 761.3 472.8 758.5 474.0 L 595.5 568.0 L 534.0 603.5 L 510.5 616.0 L 262.0 472.5 L 262.0 258.5 L 262.0 204.5 L 262.0 191.5 Q 260.8 185.3 264.5 184.0 L 510.5 42.0 Z" /><path desc="l 0 p 1" fill="rgb(0,0,255)" stroke="rgb(0,0,255)" stroke-width="1" opacity="1.0" d="M 511.5 74.0 L 593.5 108.0 L 621.5 119.0 L 637.5 128.0 L 656.0 142.5 L 732.0 201.5 L 745.0 298.5 L 748.0 320.5 L 749.0 334.5 L 747.5 342.0 L 744.0 367.5 L 731.5 457.0 L 653.0 517.5 L 636.5 530.0 Q 632.2 536.2 623.5 538.0 L 599.5 548.0 L 511.5 584.0 L 426.5 549.0 L 399.5 538.0 Q 390.5 536.0 385.5 530.0 L 367.5 516.0 L 290.0 456.5 L 288.5 442.0 L 285.5 420.0 L 273.0 327.5 Q 275.8 325.8 274.0 319.5 L 276.5 305.0 L 286.0 235.5 L 289.5 210.0 L 290.0 205.5 Q 289.3 200.8 292.5 200.0 L 364.5 144.0 L 385.0 128.5 Q 390.5 122.0 400.0 119.5 L 421.5 111.0 L 511.5 74.0 Z" /><path desc="l 4 p 1" fill="rgb(255,255,255)" stroke="rgb(255,255,255)" stroke-width="1" opacity="1.0" d="M 510.5 91.0 L 531.0 101.5 L 591.5 135.0 Q 615.1 145.9 635.5 160.0 L 718.0 210.5 L 719.0 275.5 L 720.0 362.5 L 719.0 367.5 L 719.0 380.5 L 718.0 429.5 L 718.0 442.5 Q 719.3 448.8 715.5 450.0 L 643.0 493.5 L 603.5 517.0 L 555.5 543.0 L 525.5 560.0 L 517.0 564.5 Q 515.0 567.5 509.5 567.0 L 434.5 525.0 Q 409.3 513.2 387.5 498.0 L 305.0 448.5 L 304.5 442.0 L 304.0 418.5 L 302.0 318.5 L 303.0 313.5 L 303.0 298.5 L 304.0 244.5 L 304.5 220.0 L 305.5 209.0 L 383.0 162.5 Q 405.5 147.0 431.5 135.0 L 510.5 91.0 Z" /><path desc="l 0 p 2" fill="rgb(0,0,255)" stroke="rgb(0,0,255)" stroke-width="1" opacity="1.0" d="M 509.5 106.0 L 514.5 107.0 L 522.0 110.5 L 554.0 124.5 L 551.5 125.0 L 529.5 120.0 L 529.5 121.0 L 558.5 139.0 L 569.5 145.0 L 574.5 134.0 L 603.5 147.0 Q 615.5 150.5 623.5 158.0 L 649.0 176.5 L 642.0 187.5 L 682.5 209.0 L 681.0 206.5 L 666.0 189.5 L 669.5 192.0 L 705.0 217.5 L 710.0 265.5 L 709.0 265.5 L 701.5 240.0 L 700.5 246.0 L 700.0 258.5 L 699.0 286.5 L 705.5 287.0 L 712.0 285.5 L 710.0 269.5 L 711.0 269.5 L 715.0 284.5 L 712.0 286.5 L 714.5 311.0 L 715.5 321.0 L 716.0 336.5 L 715.0 340.5 L 714.5 347.0 L 712.0 372.5 L 715.0 373.5 L 710.5 389.0 L 710.0 386.5 L 711.0 381.5 L 712.0 373.5 Q 711.3 371.3 707.5 372.0 L 699.5 371.0 L 699.0 385.5 L 700.0 390.5 L 700.0 403.5 Q 699.0 412.5 701.5 418.0 L 708.5 396.0 L 709.0 404.5 L 708.0 409.5 L 706.0 433.5 L 705.0 437.5 Q 705.8 442.3 702.5 443.0 L 666.5 469.0 L 670.0 464.5 L 682.0 450.5 L 680.5 450.0 L 642.0 470.5 L 649.0 481.5 L 624.5 499.0 Q 615.6 507.6 602.5 512.0 L 582.5 521.0 L 573.5 524.0 L 568.5 513.0 L 529.0 537.5 L 532.5 538.0 L 553.5 533.0 L 553.5 534.0 L 511.5 553.0 L 469.0 533.5 L 470.5 533.0 L 492.5 538.0 L 491.5 536.0 L 454.0 512.5 L 459.0 499.5 L 430.0 490.5 L 423.0 488.5 L 418.0 485.5 L 411.5 480.0 L 389.5 460.0 L 382.0 470.5 L 390.5 476.0 L 409.0 485.5 L 428.0 496.5 L 453.0 512.5 L 449.0 524.5 L 464.0 531.5 L 462.5 532.0 L 447.0 527.5 L 448.0 524.5 L 419.5 512.0 L 410.5 508.0 L 401.5 502.0 L 374.0 481.5 L 381.0 470.5 L 339.5 449.0 L 347.0 457.5 L 361.5 473.0 L 373.0 481.5 L 370.0 483.5 L 355.5 468.0 L 317.5 441.0 L 316.0 441.5 L 317.0 438.5 L 317.0 431.5 L 316.0 427.5 L 315.5 421.0 L 313.0 395.5 L 314.0 395.5 L 321.5 420.0 L 322.5 396.0 L 323.0 371.5 L 319.5 371.0 L 311.0 372.5 L 312.0 387.5 L 311.0 387.5 L 307.0 373.5 L 310.0 372.5 L 306.0 325.5 L 307.0 321.5 L 307.5 315.0 L 310.0 286.5 L 307.0 284.5 L 311.5 270.0 L 312.0 275.5 L 311.0 278.5 L 311.0 285.5 L 322.5 287.0 L 323.0 263.5 Q 320.5 262.0 322.0 256.5 L 321.5 238.0 L 313.5 264.0 L 313.0 257.5 L 314.0 254.5 L 314.0 247.5 L 315.0 242.5 L 316.5 228.0 L 317.0 221.5 Q 316.3 215.8 320.5 215.0 L 357.5 188.0 L 348.0 198.5 L 339.0 208.5 L 340.5 209.0 L 362.0 197.5 L 381.5 188.0 L 389.5 198.0 Q 402.3 190.3 411.0 178.5 L 417.5 173.0 L 423.0 169.5 L 430.0 167.5 L 459.0 158.5 L 454.0 145.5 L 494.0 120.5 L 490.5 120.0 L 469.5 125.0 L 469.5 124.0 L 509.5 106.0 Z" /><path desc="l 4 p 2" fill="rgb(255,255,255)" stroke="rgb(255,255,255)" stroke-width="1" opacity="1.0" d="M 511.5 109.0 L 526.0 118.5 L 524.5 119.0 L 517.5 117.0 L 508.5 116.0 L 497.5 119.0 L 498.5 117.0 L 511.5 109.0 Z" /><path desc="l 0 p 3" fill="rgb(0,0,255)" stroke="rgb(0,0,255)" stroke-width="1" opacity="1.0" d="M 459.5 127.0 L 462.0 127.5 L 448.5 133.0 L 447.0 130.5 L 459.5 127.0 Z" /><path desc="l 0 p 4" fill="rgb(0,0,255)" stroke="rgb(0,0,255)" stroke-width="1" opacity="1.0" d="M 561.5 127.0 L 575.0 130.5 L 573.5 133.0 L 564.5 129.0 Q 560.8 128.8 561.5 127.0 Z" /><path desc="l 0 p 5" fill="rgb(0,0,255)" stroke="rgb(0,0,255)" stroke-width="1" opacity="1.0" d="M 446.5 134.0 L 449.0 134.5 L 453.0 145.5 L 412.5 171.0 L 381.5 187.0 L 376.0 180.5 L 374.0 176.5 L 397.5 160.0 Q 405.7 151.7 417.5 147.0 L 446.5 134.0 Z" /><path desc="l 4 p 3" fill="rgb(255,255,255)" stroke="rgb(255,255,255)" stroke-width="1" opacity="1.0" d="M 510.5 139.0 L 542.0 151.5 L 539.5 152.0 L 510.5 143.0 L 481.5 152.0 L 481.5 151.0 L 510.5 139.0 Z" /><path desc="l 4 p 4" fill="rgb(255,255,255)" stroke="rgb(255,255,255)" stroke-width="1" opacity="1.0" d="M 569.5 146.0 L 596.0 162.5 L 614.5 173.0 L 641.0 187.5 L 634.5 196.0 L 633.0 199.5 L 641.0 206.5 L 637.5 204.0 L 632.0 199.5 L 617.5 184.0 L 607.5 175.0 Q 605.0 170.5 599.0 169.5 L 590.5 167.0 L 564.0 158.5 L 569.5 146.0 Z" /><path desc="l 4 p 5" fill="rgb(255,255,255)" stroke="rgb(255,255,255)" stroke-width="1" opacity="1.0" d="M 510.5 148.0 L 521.5 154.0 L 551.0 174.5 L 549.5 175.0 L 514.5 161.0 L 513.0 161.5 L 513.5 160.0 L 511.5 159.0 L 510.5 161.0 L 508.5 160.0 L 507.5 163.0 L 507.5 161.0 L 472.5 175.0 L 474.5 172.0 L 510.5 148.0 Z" /><path desc="l 4 p 6" fill="rgb(255,255,255)" stroke="rgb(255,255,255)" stroke-width="1" opacity="1.0" d="M 517.5 163.0 L 548.0 180.5 L 546.5 180.0 L 541.5 178.0 L 542.5 180.0 L 549.0 183.5 L 531.5 186.0 L 530.5 183.0 L 517.0 172.5 L 514.0 169.5 L 510.5 168.0 L 491.0 184.5 L 490.5 186.0 L 486.5 185.0 L 474.0 183.5 L 480.0 179.5 L 478.0 178.5 L 503.5 164.0 L 502.5 166.0 L 495.0 170.5 L 496.5 171.0 Q 502.9 165.9 512.5 164.0 L 525.5 170.0 L 524.5 168.0 Q 518.3 166.6 517.5 163.0 Z" /><path desc="l 0 p 6" fill="rgb(0,0,255)" stroke="rgb(0,0,255)" stroke-width="1" opacity="1.0" d="M 651.5 174.0 L 663.0 186.5 L 659.5 184.0 L 650.0 177.5 L 651.5 174.0 Z" /><path desc="l 0 p 7" fill="rgb(0,0,255)" stroke="rgb(0,0,255)" stroke-width="1" opacity="1.0" d="M 370.5 175.0 L 373.0 176.5 L 372.5 178.0 L 360.5 186.0 L 370.5 175.0 Z" /><path desc="l 4 p 7" fill="rgb(255,255,255)" stroke="rgb(255,255,255)" stroke-width="1" opacity="1.0" d="M 510.5 178.0 L 530.0 185.5 L 520.0 186.5 L 502.5 187.0 L 498.5 186.0 L 492.0 185.5 L 510.5 178.0 Z" /><path desc="l 0 p 8" fill="rgb(0,0,255)" stroke="rgb(0,0,255)" stroke-width="1" opacity="1.0" d="M 424.5 179.0 L 446.5 181.0 Q 451.8 179.8 453.0 182.5 L 437.5 189.0 L 427.5 194.0 L 412.5 206.0 L 413.0 204.5 L 424.5 179.0 Z" /><path desc="l 4 p 8" fill="rgb(255,255,255)" stroke="rgb(255,255,255)" stroke-width="1" opacity="1.0" d="M 486.5 187.0 L 483.5 191.0 L 474.5 197.0 L 473.0 192.5 L 486.5 187.0 Z" /><path desc="l 4 p 9" fill="rgb(255,255,255)" stroke="rgb(255,255,255)" stroke-width="1" opacity="1.0" d="M 587.5 207.0 L 614.0 221.5 L 611.0 227.5 L 621.0 236.5 L 619.5 237.0 L 607.0 231.5 L 610.0 227.5 L 595.0 214.5 L 587.5 207.0 Z" /><path desc="l 4 p 10" fill="rgb(255,255,255)" stroke="rgb(255,255,255)" stroke-width="1" opacity="1.0" d="M 336.5 211.0 L 326.0 222.5 L 324.0 229.5 L 321.5 236.0 L 321.0 220.5 L 322.5 218.0 L 336.5 211.0 Z" /><path desc="l 4 p 11" fill="rgb(255,255,255)" stroke="rgb(255,255,255)" stroke-width="1" opacity="1.0" d="M 646.5 211.0 L 676.0 234.5 L 680.0 266.5 L 679.0 266.5 L 674.0 243.5 L 673.0 239.5 Q 672.8 234.8 669.5 233.0 L 654.0 218.5 L 646.5 211.0 Z" /><path desc="l 4 p 12" fill="rgb(255,255,255)" stroke="rgb(255,255,255)" stroke-width="1" opacity="1.0" d="M 686.5 211.0 L 701.0 219.5 L 700.5 237.0 L 697.0 226.5 L 693.0 218.5 L 686.5 211.0 Z" /><path desc="l 4 p 13" fill="rgb(255,255,255)" stroke="rgb(255,255,255)" stroke-width="1" opacity="1.0" d="M 373.5 213.0 L 361.5 226.0 L 350.0 236.5 L 342.5 269.0 L 342.0 264.5 L 343.5 257.0 L 346.5 235.0 L 348.0 234.5 L 347.5 233.0 L 373.5 213.0 Z" /><path desc="l 4 p 14" fill="rgb(255,255,255)" stroke="rgb(255,255,255)" stroke-width="1" opacity="1.0" d="M 415.5 213.0 L 414.5 215.0 L 415.5 213.0 Z" /><path desc="l 4 p 15" fill="rgb(255,255,255)" stroke="rgb(255,255,255)" stroke-width="1" opacity="1.0" d="M 623.5 216.0 L 668.0 238.5 L 667.0 257.5 L 664.5 288.0 L 658.5 246.0 L 657.5 282.0 L 656.5 273.0 L 655.5 288.0 L 646.0 275.5 L 651.0 248.5 L 626.5 239.0 Q 625.3 241.3 624.0 238.5 L 624.0 236.5 L 619.0 224.5 L 620.5 225.0 L 626.5 228.0 L 625.5 225.0 L 651.0 240.5 L 649.5 240.0 L 642.5 237.0 L 643.5 239.0 L 654.0 246.5 L 655.0 253.5 L 656.5 271.0 L 657.0 243.5 L 654.0 242.5 Q 656.3 241.3 653.5 240.0 L 632.0 223.5 L 627.0 219.5 L 623.5 216.0 Z" /><path desc="l 4 p 16" fill="rgb(255,255,255)" stroke="rgb(255,255,255)" stroke-width="1" opacity="1.0" d="M 397.5 217.0 L 395.5 220.0 L 368.0 241.5 L 368.5 243.0 L 366.5 242.0 L 366.5 244.0 Q 365.3 241.8 364.0 244.5 L 360.0 273.5 L 357.5 288.0 L 354.0 238.5 L 397.5 217.0 Z" /><path desc="l 4 p 17" fill="rgb(255,255,255)" stroke="rgb(255,255,255)" stroke-width="1" opacity="1.0" d="M 401.5 222.0 L 400.5 224.0 L 401.5 222.0 Z" /><path desc="l 4 p 18" fill="rgb(255,255,255)" stroke="rgb(255,255,255)" stroke-width="1" opacity="1.0" d="M 622.5 223.0 L 623.5 225.0 L 622.5 223.0 Z" /><path desc="l 0 p 9" fill="rgb(0,0,255)" stroke="rgb(0,0,255)" stroke-width="1" opacity="1.0" d="M 510.5 237.0 L 591.0 283.5 L 591.0 351.5 L 591.0 368.5 Q 592.5 375.5 588.5 377.0 L 531.5 409.0 L 516.0 418.5 L 510.5 421.0 L 431.0 374.5 L 431.0 306.5 L 431.0 289.5 Q 432.5 284.0 430.0 282.5 L 432.5 282.0 L 510.5 237.0 Z" /><path desc="l 4 p 19" fill="rgb(255,255,255)" stroke="rgb(255,255,255)" stroke-width="1" opacity="1.0" d="M 396.5 240.0 L 396.0 241.5 L 386.5 261.0 L 377.5 274.0 L 377.0 271.5 L 378.0 268.5 L 379.0 259.5 L 380.0 256.5 L 381.0 253.5 L 385.5 249.0 L 396.5 240.0 Z" /><path desc="l 4 p 20" fill="rgb(255,255,255)" stroke="rgb(255,255,255)" stroke-width="1" opacity="1.0" d="M 626.5 241.0 L 642.0 253.5 L 645.0 272.5 L 643.0 271.5 L 632.5 255.0 L 626.5 241.0 Z" /><path desc="l 4 p 21" fill="rgb(255,255,255)" stroke="rgb(255,255,255)" stroke-width="1" opacity="1.0" d="M 509.5 245.0 Q 515.0 244.5 517.0 247.5 L 530.0 253.5 L 557.5 268.0 L 584.0 286.5 L 586.0 309.5 L 586.5 316.0 L 587.0 341.5 Q 584.5 343.0 586.0 348.5 L 585.0 362.5 Q 586.1 370.1 582.5 373.0 L 558.0 389.5 L 541.5 399.0 L 525.5 407.0 L 515.0 411.5 L 509.5 413.0 L 481.5 399.0 Q 471.8 395.8 465.0 389.5 L 438.0 371.5 L 436.0 344.5 L 435.0 321.5 Q 437.5 320.0 436.0 314.5 L 437.0 297.5 L 438.0 290.5 Q 437.3 285.8 440.5 285.0 L 465.0 268.5 L 480.0 259.5 L 509.5 245.0 Z" /><path desc="l 0 p 10" fill="rgb(0,0,255)" stroke="rgb(0,0,255)" stroke-width="1" opacity="1.0" d="M 511.5 271.0 L 531.5 275.0 L 536.5 276.0 Q 542.9 276.1 545.0 280.5 L 555.5 293.0 Q 560.9 296.6 562.5 304.0 L 569.0 321.5 Q 571.7 324.8 571.0 331.5 L 564.0 349.5 Q 562.8 359.3 556.0 363.5 L 540.5 382.0 L 529.5 383.0 L 510.5 387.0 L 490.5 383.0 L 485.5 382.0 L 480.0 380.5 L 465.0 362.5 Q 459.8 357.7 458.0 349.5 L 453.0 335.5 L 451.0 327.5 L 459.0 307.5 Q 460.0 299.5 465.0 295.5 L 480.5 277.0 L 511.5 271.0 Z" /><path desc="l 4 p 22" fill="rgb(255,255,255)" stroke="rgb(255,255,255)" stroke-width="1" opacity="1.0" d="M 511.5 275.0 L 531.5 280.0 L 535.5 281.0 Q 541.6 282.4 544.0 287.5 L 554.0 298.5 Q 559.3 301.3 559.5 309.0 L 563.0 322.5 Q 565.8 325.2 565.0 331.5 L 560.0 349.5 Q 558.6 357.6 552.5 361.0 L 538.5 376.0 L 510.5 383.0 L 490.5 378.0 Q 482.8 376.8 479.5 371.0 L 464.0 355.5 L 457.0 328.5 L 463.0 309.5 Q 463.4 300.4 469.5 297.0 L 484.5 282.0 L 511.5 275.0 Z" /><path desc="l 4 p 23" fill="rgb(255,255,255)" stroke="rgb(255,255,255)" stroke-width="1" opacity="1.0" d="M 339.5 290.0 L 356.5 292.0 L 357.5 290.0 L 358.5 292.0 L 363.0 293.5 L 358.5 300.0 L 357.5 292.0 L 356.0 302.5 L 357.0 302.5 L 357.5 301.0 L 359.0 301.5 L 360.5 329.0 L 363.5 298.0 L 364.0 316.5 Q 361.5 318.0 363.0 323.5 L 363.0 342.5 L 364.0 347.5 L 364.0 359.5 L 363.0 359.5 L 362.5 349.0 L 360.5 330.0 L 358.5 357.0 L 357.0 356.5 L 356.5 355.0 L 356.0 360.5 L 357.5 366.0 L 358.5 358.0 L 363.0 364.5 L 358.0 366.5 L 357.5 368.0 L 356.5 366.0 L 344.5 368.0 Q 340.0 367.0 339.0 369.5 L 340.0 376.5 L 339.0 376.5 L 338.0 369.5 L 339.0 365.5 Q 336.3 363.8 338.0 357.5 L 335.5 343.0 L 334.5 335.0 L 334.0 323.5 L 335.5 316.0 L 339.5 290.0 Z" /><path desc="l 4 p 24" fill="rgb(255,255,255)" stroke="rgb(255,255,255)" stroke-width="1" opacity="1.0" d="M 365.5 290.0 L 368.5 294.0 L 373.0 294.5 L 368.5 323.0 Q 365.3 321.3 367.0 314.5 L 366.5 293.0 L 364.0 292.5 L 365.5 290.0 Z" /><path desc="l 4 p 25" fill="rgb(255,255,255)" stroke="rgb(255,255,255)" stroke-width="1" opacity="1.0" d="M 662.5 292.0 L 664.0 292.5 L 663.5 300.0 L 659.0 293.5 L 662.5 292.0 Z" /><path desc="l 0 p 11" fill="rgb(0,0,255)" stroke="rgb(0,0,255)" stroke-width="1" opacity="1.0" d="M 667.5 305.0 L 685.0 329.5 L 667.5 353.0 L 667.0 350.5 L 669.5 336.0 L 670.0 323.5 L 669.0 319.5 L 667.5 305.0 Z" /><path desc="l 0 p 12" fill="rgb(0,0,255)" stroke="rgb(0,0,255)" stroke-width="1" opacity="1.0" d="M 354.5 306.0 L 355.0 310.5 L 352.5 325.0 L 352.0 332.5 L 353.0 336.5 L 355.0 352.5 L 354.0 352.5 L 338.0 328.5 L 354.5 306.0 Z" /><path desc="l 4 p 26" fill="rgb(255,255,255)" stroke="rgb(255,255,255)" stroke-width="1" opacity="1.0" d="M 368.5 335.0 L 373.0 363.5 L 367.0 365.5 L 365.5 368.0 L 364.0 365.5 L 367.0 364.5 L 367.0 345.5 Q 366.0 338.5 368.5 335.0 Z" /><path desc="l 4 p 27" fill="rgb(255,255,255)" stroke="rgb(255,255,255)" stroke-width="1" opacity="1.0" d="M 366.5 369.0 L 375.5 382.0 L 377.0 382.5 Q 374.0 385.0 374.5 391.0 L 371.0 409.5 L 397.5 420.0 L 399.0 419.5 L 398.0 421.5 L 404.0 433.5 L 402.5 433.0 L 395.5 430.0 L 396.5 432.0 L 399.0 433.5 L 397.5 433.0 L 375.0 419.5 L 376.5 420.0 L 381.5 422.0 L 380.5 420.0 L 369.0 412.5 Q 365.9 405.1 366.5 394.0 L 365.0 399.5 L 364.5 405.0 L 364.0 372.5 L 365.0 372.5 L 365.5 383.0 L 366.5 369.0 Z" /><path desc="l 4 p 28" fill="rgb(255,255,255)" stroke="rgb(255,255,255)" stroke-width="1" opacity="1.0" d="M 655.5 370.0 L 656.5 386.0 L 657.5 376.0 L 658.5 412.0 L 664.5 370.0 L 667.0 400.5 L 668.0 419.5 L 625.5 441.0 L 628.5 437.0 L 655.0 416.5 L 654.5 415.0 L 656.5 415.0 L 658.0 414.5 Q 655.3 412.8 657.0 406.5 L 656.5 387.0 L 655.0 404.5 Q 656.1 412.1 651.5 414.0 L 639.0 422.5 L 640.5 423.0 L 650.5 417.0 L 649.5 419.0 L 622.5 435.0 L 623.5 433.0 L 626.0 431.5 L 624.5 431.0 L 619.5 434.0 L 619.0 432.5 L 625.0 420.5 Q 622.8 419.3 625.5 418.0 L 627.5 419.0 L 651.0 409.5 L 646.0 382.5 L 655.5 370.0 Z" /><path desc="l 4 p 29" fill="rgb(255,255,255)" stroke="rgb(255,255,255)" stroke-width="1" opacity="1.0" d="M 357.5 371.0 L 362.0 399.5 L 363.0 406.5 L 364.0 411.5 L 365.5 415.0 L 367.0 414.5 Q 364.8 415.8 367.5 417.0 L 398.0 440.5 L 396.5 440.0 L 354.0 419.5 L 357.5 371.0 Z" /><path desc="l 4 p 30" fill="rgb(255,255,255)" stroke="rgb(255,255,255)" stroke-width="1" opacity="1.0" d="M 682.5 375.0 L 683.0 378.5 L 682.0 378.5 L 682.5 375.0 Z" /><path desc="l 4 p 31" fill="rgb(255,255,255)" stroke="rgb(255,255,255)" stroke-width="1" opacity="1.0" d="M 377.5 385.0 L 385.5 396.0 L 391.0 405.5 L 397.0 417.5 L 392.5 414.0 L 380.0 404.5 L 377.5 385.0 Z" /><path desc="l 4 p 32" fill="rgb(255,255,255)" stroke="rgb(255,255,255)" stroke-width="1" opacity="1.0" d="M 644.5 385.0 L 645.0 389.5 L 643.5 395.0 L 643.0 400.5 L 642.0 402.5 Q 642.5 406.5 639.5 407.0 L 626.5 417.0 L 627.0 415.5 L 636.0 396.5 L 644.5 385.0 Z" /><path desc="l 4 p 33" fill="rgb(255,255,255)" stroke="rgb(255,255,255)" stroke-width="1" opacity="1.0" d="M 342.5 390.0 L 348.0 411.5 L 349.0 418.5 L 353.0 424.5 L 362.5 434.0 L 375.0 445.5 L 370.5 442.0 L 347.0 424.5 L 342.5 390.0 Z" /><path desc="l 4 p 34" fill="rgb(255,255,255)" stroke="rgb(255,255,255)" stroke-width="1" opacity="1.0" d="M 679.5 391.0 L 680.0 396.5 L 679.0 400.5 L 677.0 417.5 L 676.0 421.5 Q 676.5 426.5 672.5 427.0 L 645.5 448.0 L 649.5 443.0 L 672.0 422.5 L 679.5 391.0 Z" /><path desc="l 4 p 35" fill="rgb(255,255,255)" stroke="rgb(255,255,255)" stroke-width="1" opacity="1.0" d="M 370.5 416.0 L 371.5 418.0 L 370.5 416.0 Z" /><path desc="l 4 p 36" fill="rgb(255,255,255)" stroke="rgb(255,255,255)" stroke-width="1" opacity="1.0" d="M 622.5 420.0 L 621.5 422.0 L 611.0 430.5 L 614.0 436.5 L 587.5 451.0 L 591.5 446.0 L 610.0 431.5 L 607.0 426.5 L 622.5 420.0 Z" /><path desc="l 4 p 37" fill="rgb(255,255,255)" stroke="rgb(255,255,255)" stroke-width="1" opacity="1.0" d="M 700.5 421.0 L 701.0 438.5 L 686.5 447.0 L 693.0 439.5 L 697.5 431.0 L 700.5 421.0 Z" /><path desc="l 4 p 38" fill="rgb(255,255,255)" stroke="rgb(255,255,255)" stroke-width="1" opacity="1.0" d="M 321.5 423.0 L 323.0 423.5 L 325.5 433.0 L 329.0 438.5 L 336.0 446.5 L 334.5 446.0 L 321.0 438.5 L 321.5 423.0 Z" /><path desc="l 4 p 39" fill="rgb(255,255,255)" stroke="rgb(255,255,255)" stroke-width="1" opacity="1.0" d="M 400.5 434.0 L 401.5 436.0 L 400.5 434.0 Z" /><path desc="l 4 p 40" fill="rgb(255,255,255)" stroke="rgb(255,255,255)" stroke-width="1" opacity="1.0" d="M 616.5 435.0 L 618.0 435.5 L 616.5 438.0 L 615.0 437.5 L 616.5 435.0 Z" /><path desc="l 4 p 41" fill="rgb(255,255,255)" stroke="rgb(255,255,255)" stroke-width="1" opacity="1.0" d="M 620.5 435.0 L 619.5 437.0 L 620.5 435.0 Z" /><path desc="l 4 p 42" fill="rgb(255,255,255)" stroke="rgb(255,255,255)" stroke-width="1" opacity="1.0" d="M 616.5 439.0 L 619.5 443.0 L 621.0 443.5 L 631.0 458.5 L 610.5 475.0 Q 602.4 483.4 589.5 487.0 L 563.0 498.5 L 562.5 500.0 L 557.5 501.0 L 557.5 500.0 L 563.0 497.5 L 556.0 481.5 Q 558.5 480.0 555.0 478.5 L 554.0 475.5 L 558.5 475.0 L 562.0 476.5 L 557.0 479.5 L 559.5 480.0 L 567.0 476.5 L 563.0 475.5 L 582.0 462.5 L 580.5 462.0 L 563.5 470.0 L 563.5 469.0 Q 587.5 457.5 608.5 443.0 L 607.5 445.0 L 591.0 456.5 L 592.5 457.0 L 611.5 447.0 L 612.5 450.0 L 618.0 445.5 L 615.5 445.0 L 613.5 446.0 L 614.0 444.5 L 616.5 439.0 Z" /><path desc="l 4 p 43" fill="rgb(255,255,255)" stroke="rgb(255,255,255)" stroke-width="1" opacity="1.0" d="M 379.5 449.0 L 380.5 451.0 L 379.5 449.0 Z" /><path desc="l 4 p 44" fill="rgb(255,255,255)" stroke="rgb(255,255,255)" stroke-width="1" opacity="1.0" d="M 640.5 451.0 L 633.5 459.0 L 632.0 458.5 L 640.5 451.0 Z" /><path desc="l 0 p 13" fill="rgb(0,0,255)" stroke="rgb(0,0,255)" stroke-width="1" opacity="1.0" d="M 412.5 452.0 L 427.5 464.0 L 436.0 468.5 L 454.0 476.5 L 424.5 479.0 L 412.5 452.0 Z" /><path desc="l 0 p 14" fill="rgb(0,0,255)" stroke="rgb(0,0,255)" stroke-width="1" opacity="1.0" d="M 609.5 452.0 L 610.0 453.5 L 597.5 479.0 L 569.0 476.5 L 583.5 470.0 Q 591.7 468.2 596.5 463.0 L 609.5 452.0 Z" /><path desc="l 4 p 45" fill="rgb(255,255,255)" stroke="rgb(255,255,255)" stroke-width="1" opacity="1.0" d="M 443.5 455.0 L 472.0 465.5 L 469.5 472.0 L 450.5 460.0 L 445.5 457.0 L 443.5 455.0 Z" /><path desc="l 4 p 46" fill="rgb(255,255,255)" stroke="rgb(255,255,255)" stroke-width="1" opacity="1.0" d="M 631.5 460.0 L 636.0 463.5 L 641.0 470.5 L 617.5 483.0 L 569.5 512.0 L 564.0 499.5 L 590.5 491.0 L 599.0 488.5 L 604.0 486.5 L 609.0 481.5 L 631.5 460.0 Z" /><path desc="l 4 p 47" fill="rgb(255,255,255)" stroke="rgb(255,255,255)" stroke-width="1" opacity="1.0" d="M 474.5 461.0 L 487.0 470.5 L 485.5 471.0 L 473.0 465.5 L 474.5 461.0 Z" /><path desc="l 4 p 48" fill="rgb(255,255,255)" stroke="rgb(255,255,255)" stroke-width="1" opacity="1.0" d="M 503.5 471.0 L 519.0 471.5 L 529.0 472.5 L 528.5 474.0 L 510.5 480.0 L 493.0 472.5 L 499.5 472.0 L 503.5 471.0 Z" /><path desc="l 0 p 15" fill="rgb(0,0,255)" stroke="rgb(0,0,255)" stroke-width="1" opacity="1.0" d="M 662.5 471.0 L 659.0 475.5 L 651.5 484.0 L 650.0 480.5 L 662.5 471.0 Z" /><path desc="l 4 p 49" fill="rgb(255,255,255)" stroke="rgb(255,255,255)" stroke-width="1" opacity="1.0" d="M 471.5 483.0 L 507.5 497.0 L 509.0 496.5 L 508.5 498.0 L 510.5 497.0 L 510.5 499.0 L 512.0 498.5 L 512.5 497.0 L 514.5 498.0 L 550.5 483.0 L 549.5 485.0 L 521.5 504.0 L 510.5 510.0 L 482.0 490.5 L 473.5 485.0 L 471.5 483.0 Z" /><path desc="l 4 p 50" fill="rgb(255,255,255)" stroke="rgb(255,255,255)" stroke-width="1" opacity="1.0" d="M 505.5 494.0 L 506.5 496.0 L 505.5 494.0 Z" /><path desc="l 4 p 51" fill="rgb(255,255,255)" stroke="rgb(255,255,255)" stroke-width="1" opacity="1.0" d="M 478.5 505.0 L 512.5 515.0 L 541.5 506.0 L 541.5 507.0 L 510.5 519.0 L 489.5 510.0 L 481.5 507.0 Q 477.8 506.8 478.5 505.0 Z" /><path desc="l 0 p 16" fill="rgb(0,0,255)" stroke="rgb(0,0,255)" stroke-width="1" opacity="1.0" d="M 572.5 525.0 L 575.0 526.5 L 574.5 528.0 L 561.5 531.0 L 561.5 530.0 L 572.5 525.0 Z" /><path desc="l 4 p 52" fill="rgb(255,255,255)" stroke="rgb(255,255,255)" stroke-width="1" opacity="1.0" d="M 497.5 539.0 L 504.5 541.0 L 514.5 542.0 L 525.5 539.0 L 525.5 540.0 L 511.5 549.0 L 503.0 543.5 Q 498.1 542.0 497.5 539.0 Z" /></svg>